<?xml version="1.0" standalone="no"?>
<!DOCTYPE svg PUBLIC "-//W3C//DTD SVG 20010904//EN"
 "http://www.w3.org/TR/2001/REC-SVG-20010904/DTD/svg10.dtd">
<svg version="1.0" xmlns="http://www.w3.org/2000/svg"
 width="1328.000000pt" height="1328.000000pt" viewBox="0 0 1328.000000 1328.000000"
 preserveAspectRatio="xMidYMid meet">
<metadata>
Created by potrace 1.14, written by Peter Selinger 2001-2017
</metadata>
<g transform="translate(0.000000,1328.000000) scale(0.100000,-0.100000)"
fill="#000000" stroke="none">
<path d="M6280 11890 c0 -19 -7 -20 -184 -20 -175 0 -184 -1 -189 -20 -5 -19
-14 -20 -139 -20 -145 0 -178 -5 -178 -26 0 -11 -19 -14 -80 -14 -73 0 -80 -2
-80 -20 0 -18 -7 -20 -85 -20 -78 0 -85 -2 -85 -20 0 -18 -7 -20 -80 -20 -73
0 -80 -2 -80 -20 0 -18 -7 -20 -65 -20 -39 0 -65 -4 -65 -11 0 -5 -4 -7 -10
-4 -5 3 -10 -1 -10 -9 0 -12 -11 -16 -44 -16 -54 0 -76 -8 -76 -26 0 -10 -14
-14 -50 -14 -38 0 -54 -5 -67 -20 -11 -13 -30 -20 -53 -21 -46 -1 -75 -12 -75
-30 0 -9 -14 -15 -42 -17 -35 -3 -43 -7 -43 -23 0 -15 -7 -19 -39 -19 -30 0
-40 -4 -44 -20 -4 -16 -14 -20 -49 -21 -23 -1 -49 -1 -56 0 -8 1 -16 -7 -19
-18 -4 -17 -13 -21 -44 -21 -32 0 -39 -3 -39 -20 0 -17 -7 -20 -40 -20 -33 0
-40 -3 -40 -20 0 -17 -7 -20 -40 -20 -33 0 -40 -3 -40 -20 0 -17 -7 -20 -40
-20 -33 0 -40 -3 -40 -20 0 -17 -7 -20 -40 -20 -33 0 -40 -3 -40 -20 0 -17 -7
-20 -40 -20 -33 0 -40 -3 -40 -20 0 -13 -7 -20 -20 -20 -13 0 -20 -7 -20 -20
0 -17 -7 -20 -40 -20 -33 0 -40 -3 -40 -20 0 -13 -7 -20 -20 -20 -13 0 -20 -7
-20 -20 0 -17 -7 -20 -40 -20 -33 0 -40 -3 -40 -20 0 -20 -14 -25 -65 -22 -11
0 -15 -2 -8 -4 20 -9 3 -34 -23 -34 -17 0 -24 -6 -24 -20 0 -13 -7 -20 -20
-20 -11 0 -20 -7 -20 -15 0 -8 -7 -16 -15 -16 -8 -1 -19 -3 -25 -4 -5 -1 -19
-3 -30 -4 -12 -1 -20 -8 -20 -20 0 -10 -6 -19 -12 -18 -51 2 -69 -4 -66 -20 2
-12 -4 -19 -19 -21 -15 -2 -23 -10 -23 -23 0 -12 -7 -19 -20 -19 -13 0 -20 -7
-20 -20 0 -13 -7 -20 -20 -20 -13 0 -20 -7 -20 -20 0 -17 -7 -20 -40 -20 -33
0 -40 -3 -40 -20 0 -13 -7 -20 -20 -20 -13 0 -20 -7 -20 -20 0 -13 -7 -20 -20
-20 -15 0 -20 -7 -20 -25 0 -18 -5 -25 -20 -25 -13 0 -20 -7 -20 -20 0 -13 -7
-20 -20 -20 -13 0 -20 -7 -20 -20 0 -16 -7 -20 -32 -21 -18 -1 -36 -1 -40 0
-5 0 -8 -8 -8 -19 0 -13 -7 -20 -20 -20 -13 0 -20 -7 -20 -20 0 -13 -7 -20
-20 -20 -13 0 -20 -7 -20 -20 0 -13 -7 -20 -20 -20 -13 0 -20 -7 -20 -20 0
-13 -7 -20 -20 -20 -13 0 -20 -7 -20 -20 0 -13 -7 -20 -20 -20 -13 0 -20 -7
-20 -20 0 -13 -7 -20 -20 -20 -13 0 -20 -7 -20 -20 0 -13 -7 -20 -20 -20 -13
0 -20 -7 -20 -20 0 -13 -7 -20 -20 -20 -13 0 -20 -7 -20 -20 0 -13 -7 -20 -20
-20 -13 0 -20 -7 -20 -20 0 -15 -7 -20 -25 -20 -22 0 -25 -4 -25 -40 0 -33 -3
-40 -20 -40 -13 0 -20 -7 -20 -19 0 -13 -8 -21 -22 -23 -16 -2 -22 -9 -20 -21
2 -13 -2 -17 -15 -15 -12 2 -19 -4 -21 -19 -2 -15 -10 -23 -23 -23 -12 0 -19
-7 -19 -20 0 -13 -7 -20 -20 -20 -15 0 -20 -7 -21 -27 -1 -16 -1 -32 0 -37 1
-5 -6 -3 -15 5 -16 12 -17 12 -11 -3 3 -10 2 -18 -3 -18 -6 0 -10 -9 -10 -20
0 -13 -7 -20 -20 -20 -13 0 -20 -7 -20 -20 0 -13 -7 -20 -20 -20 -13 0 -20 -7
-20 -20 0 -14 -7 -20 -21 -20 -13 0 -20 -6 -18 -17 4 -45 -2 -65 -21 -70 -11
-3 -20 -14 -20 -24 0 -12 -7 -19 -20 -19 -17 0 -20 -7 -20 -40 0 -33 -3 -40
-20 -40 -13 0 -20 -7 -20 -20 0 -13 -7 -20 -20 -20 -17 0 -20 -7 -20 -40 0
-33 -3 -40 -20 -40 -13 0 -20 -7 -20 -20 0 -13 -7 -20 -20 -20 -17 0 -20 -7
-20 -40 0 -33 -3 -40 -20 -40 -13 0 -20 -7 -20 -20 0 -13 -7 -20 -20 -20 -17
0 -20 -7 -20 -40 0 -33 -3 -40 -20 -40 -17 0 -20 -7 -20 -40 0 -33 -3 -40 -20
-40 -13 0 -20 -7 -20 -20 0 -13 -7 -20 -20 -20 -18 0 -20 -7 -20 -60 0 -53 -2
-60 -20 -60 -17 0 -20 -7 -20 -40 0 -33 -3 -40 -20 -40 -15 0 -20 -7 -20 -25
0 -16 -6 -25 -16 -25 -8 0 -12 -5 -9 -10 4 -6 12 -7 18 -4 7 4 8 3 4 -2 -5 -5
-14 -9 -20 -9 -7 0 -14 -21 -17 -50 -3 -33 -7 -44 -12 -32 -4 9 -13 17 -20 16
-10 0 -10 -2 0 -6 16 -6 16 -24 -1 -20 -8 1 -13 -13 -15 -40 -3 -35 -7 -43
-23 -43 -16 0 -19 -7 -19 -51 0 -43 -3 -50 -16 -45 -14 5 -15 4 -4 -9 10 -12
10 -15 -4 -15 -11 0 -16 -9 -16 -26 0 -18 -4 -25 -14 -21 -20 8 -26 -14 -26
-89 0 -57 -2 -64 -20 -64 -16 0 -20 -7 -20 -38 0 -26 -6 -41 -20 -50 -16 -9
-20 -23 -20 -62 0 -43 -3 -50 -20 -50 -18 0 -20 -7 -20 -80 0 -73 -2 -80 -20
-80 -18 0 -20 -7 -20 -63 0 -50 -4 -66 -20 -80 -17 -14 -20 -29 -20 -88 0 -57
-3 -70 -14 -66 -18 7 -26 -33 -26 -124 0 -62 -2 -69 -20 -69 -22 0 -23 -5 -20
-137 1 -64 -1 -73 -17 -73 -14 0 -15 -2 -5 -9 11 -7 11 -9 -2 -14 -14 -5 -16
-28 -16 -147 0 -77 -4 -140 -9 -140 -5 0 -7 -10 -4 -22 3 -17 2 -19 -5 -10 -7
11 -10 10 -16 -3 -10 -26 -7 -1065 3 -1065 5 0 8 -8 7 -17 0 -10 5 -17 12 -15
9 1 12 -36 12 -159 0 -152 1 -161 20 -166 18 -5 20 -14 21 -107 2 -129 2 -131
16 -131 20 0 22 -8 24 -103 1 -83 4 -92 20 -92 17 0 19 -9 21 -72 0 -40 1 -79
1 -86 -1 -6 8 -12 18 -12 17 0 19 -8 19 -81 0 -72 2 -81 20 -86 15 -4 20 -14
20 -37 0 -46 11 -76 26 -76 10 0 14 -14 16 -47 2 -76 3 -78 21 -77 14 2 17 -7
17 -42 0 -37 3 -44 20 -44 18 0 20 -7 20 -60 0 -53 2 -60 20 -60 17 0 20 -7
20 -40 0 -33 3 -40 20 -40 18 0 20 -7 20 -60 0 -53 2 -60 20 -60 17 0 20 -7
20 -45 0 -41 2 -45 25 -45 23 0 25 -4 25 -40 0 -33 3 -40 20 -40 17 0 20 -7
20 -40 0 -33 3 -40 20 -40 17 0 20 -7 20 -40 0 -33 3 -40 20 -40 17 0 20 -7
20 -40 0 -33 3 -40 20 -40 17 0 20 -7 20 -40 0 -32 4 -40 19 -40 13 0 20 -10
25 -31 3 -17 3 -35 0 -40 -3 -5 2 -6 10 -3 17 6 24 -6 28 -46 2 -14 11 -28 21
-32 9 -4 17 -17 17 -28 0 -13 7 -20 20 -20 17 0 20 -7 20 -40 0 -33 3 -40 20
-40 13 0 20 -7 20 -20 0 -13 7 -20 20 -20 16 0 20 -7 20 -36 0 -27 5 -37 20
-41 11 -3 20 -14 20 -24 0 -12 7 -19 20 -19 19 0 26 -24 21 -68 -1 -6 7 -12
19 -12 15 0 20 -6 20 -25 0 -18 5 -25 20 -25 13 0 20 -7 20 -20 0 -13 7 -20
20 -20 17 0 20 -7 20 -40 0 -33 3 -40 20 -40 13 0 20 -7 20 -20 0 -13 7 -20
20 -20 13 0 20 -7 20 -20 0 -13 7 -20 20 -20 19 0 23 -9 23 -61 0 -9 7 -16 16
-15 9 1 17 -8 19 -21 2 -15 10 -23 23 -23 12 0 19 -7 19 -20 0 -13 7 -20 20
-20 13 0 20 -7 20 -20 0 -13 7 -20 20 -20 13 0 20 -7 20 -20 0 -13 7 -20 19
-20 16 0 20 -8 23 -37 3 -33 6 -38 26 -35 17 1 25 -4 29 -19 3 -12 11 -18 19
-15 10 4 14 -3 14 -24 0 -25 4 -30 26 -30 15 0 23 -4 19 -11 -4 -6 2 -13 14
-16 14 -3 21 -13 21 -29 0 -17 6 -24 20 -24 13 0 20 -7 20 -20 0 -13 7 -20 20
-20 13 0 20 -7 20 -20 0 -13 7 -20 20 -20 13 0 20 -7 20 -20 0 -13 7 -20 20
-20 13 0 20 -7 20 -20 0 -13 7 -20 19 -20 10 0 21 -9 24 -19 2 -11 15 -21 28
-23 17 -2 23 -9 21 -23 -2 -17 0 -16 13 5 l15 25 -2 -25 c-2 -19 2 -26 20 -28
14 -2 22 -10 22 -23 0 -12 7 -19 20 -19 13 0 20 -7 20 -20 0 -13 7 -20 20 -20
13 0 20 -7 20 -20 0 -13 7 -20 20 -20 13 0 20 -7 20 -20 0 -13 7 -20 20 -20
13 0 20 -7 20 -20 0 -17 7 -20 40 -20 33 0 40 -3 40 -20 0 -13 7 -20 20 -20
13 0 20 -7 20 -20 0 -13 7 -20 20 -20 13 0 20 -7 20 -20 0 -17 7 -20 40 -20
33 0 40 -3 40 -20 0 -13 7 -20 20 -20 13 0 20 -7 20 -20 0 -13 7 -20 19 -20
10 0 21 -9 24 -20 4 -16 14 -20 46 -20 34 0 41 -3 41 -20 0 -15 7 -20 25 -20
19 0 25 -5 23 -17 -3 -18 1 -19 47 -22 18 -1 25 -7 25 -21 0 -15 7 -20 25 -20
15 0 25 -6 25 -15 0 -8 14 -17 35 -21 25 -4 35 -11 35 -25 0 -15 7 -19 40 -19
33 0 40 -3 40 -20 0 -17 7 -20 40 -20 33 0 40 -3 40 -20 0 -13 7 -20 20 -20
13 0 20 -7 20 -20 0 -17 7 -20 43 -21 23 -1 45 -1 49 0 4 0 5 -6 2 -14 -4 -10
5 -16 30 -21 26 -4 36 -11 36 -25 0 -15 7 -19 40 -19 33 0 40 -3 40 -20 0 -16
7 -20 36 -20 27 0 37 -5 41 -20 5 -17 14 -20 69 -20 62 0 64 -1 64 -25 0 -22
4 -25 40 -25 33 0 40 -3 40 -20 0 -17 7 -20 45 -20 32 0 45 -4 45 -14 0 -16
30 -26 78 -26 25 0 32 -4 32 -20 0 -18 7 -20 60 -20 53 0 60 -2 60 -20 0 -17
7 -20 45 -20 32 0 45 -4 45 -14 0 -17 31 -26 98 -26 45 0 52 -3 52 -20 0 -18
7 -20 64 -20 56 0 64 -3 69 -20 3 -11 9 -20 14 -19 4 1 36 1 69 0 53 -1 62 -4
67 -21 5 -18 14 -20 91 -20 75 0 86 -2 86 -17 0 -14 2 -15 9 -5 7 11 9 11 14
-2 5 -13 23 -16 92 -16 66 0 85 -3 85 -14 0 -22 24 -26 151 -26 112 0 119 -1
119 -20 0 -19 7 -20 225 -20 189 0 225 -2 225 -14 0 -17 -19 -16 254 -22 241
-6 311 -1 302 22 -5 12 29 14 217 14 233 0 267 4 267 26 0 11 22 14 105 14 98
0 105 1 105 20 0 19 7 20 100 20 58 0 100 4 100 10 0 5 7 7 15 4 8 -4 17 1 21
10 5 13 22 16 85 16 72 0 79 2 79 20 0 18 7 20 85 20 78 0 85 2 85 20 0 18 7
20 60 20 46 0 60 3 60 14 0 8 4 18 10 21 6 4 7 -1 4 -12 -5 -17 -5 -17 8 -1
10 11 33 18 75 20 34 1 61 5 61 8 -2 26 6 30 58 30 47 0 57 3 61 20 4 16 14
20 44 20 32 0 39 3 39 20 0 18 7 20 60 20 53 0 60 2 60 20 0 16 7 20 38 20 52
0 87 11 71 21 -9 5 -4 10 17 14 58 13 64 17 64 36 0 16 7 19 45 19 38 0 45 3
45 20 0 17 7 20 45 20 38 0 45 3 45 20 0 17 7 20 40 20 33 0 40 3 40 20 0 17
7 20 40 20 33 0 40 3 40 20 0 17 7 20 40 20 33 0 40 3 40 20 0 13 7 20 20 20
13 0 20 7 20 20 0 12 6 20 13 19 43 -5 67 2 67 21 0 17 7 20 40 20 33 0 40 3
40 20 0 13 7 20 20 20 11 0 20 4 20 10 0 5 7 7 15 3 10 -3 15 0 13 8 -2 9 8
15 25 17 19 2 27 9 27 23 0 16 7 19 40 19 33 0 40 3 40 20 0 13 7 20 20 20 13
0 20 7 20 20 0 17 7 20 40 20 33 0 40 3 40 20 0 13 7 20 20 20 13 0 20 7 20
20 0 13 7 20 20 20 13 0 20 7 20 20 0 17 7 20 45 20 38 0 45 3 45 20 0 13 7
20 20 20 13 0 20 7 20 20 0 17 7 20 40 20 33 0 40 4 40 19 0 10 9 21 20 24 11
3 20 12 20 21 0 9 8 16 20 16 13 0 20 7 20 20 0 13 7 20 20 20 13 0 20 7 20
20 0 13 7 20 20 20 12 0 20 7 20 16 0 9 9 18 20 21 11 3 20 14 20 24 0 12 7
19 20 19 15 0 20 7 20 25 0 23 4 25 40 25 36 0 40 3 40 24 0 20 4 24 20 21 15
-3 20 1 18 13 -2 11 5 18 20 20 14 2 22 10 22 23 0 12 7 19 20 19 13 0 20 7
20 20 0 13 7 20 20 20 13 0 20 7 20 20 0 13 7 20 20 20 13 0 20 7 20 20 0 13
7 20 20 20 13 0 20 7 20 20 0 13 7 20 20 20 13 0 20 7 20 20 0 13 7 20 20 20
15 0 20 7 20 25 0 15 6 25 15 25 8 0 17 14 21 35 4 25 11 35 25 35 12 0 19 7
19 20 0 13 7 20 20 20 13 0 20 7 20 20 0 13 7 20 20 20 13 0 20 7 20 20 0 15
7 20 25 20 18 0 25 5 25 20 0 13 7 20 19 20 13 0 21 8 23 22 2 13 9 22 16 21
6 -2 14 8 18 22 3 14 13 25 21 25 9 0 13 6 9 15 -3 8 -1 15 4 15 6 0 10 9 10
20 0 13 7 20 20 20 13 0 20 7 20 19 0 10 9 21 20 24 15 4 20 14 20 41 0 29 4
36 20 36 15 0 20 7 20 25 0 18 5 25 20 25 12 0 20 7 20 18 0 10 9 25 20 35 11
9 20 28 20 42 0 18 5 25 20 25 16 0 20 7 20 36 0 27 5 37 20 41 11 3 20 14 20
24 0 12 7 19 20 19 17 0 20 7 20 40 0 33 3 40 20 40 13 0 20 7 20 20 0 13 7
20 20 20 17 0 20 7 20 40 0 33 3 40 20 40 17 0 20 7 20 40 0 33 3 40 20 40 17
0 20 7 20 40 0 33 3 40 20 40 17 0 20 7 20 40 0 33 3 40 20 40 17 0 20 7 20
40 0 33 3 40 20 40 14 0 20 7 20 21 0 12 8 28 18 35 16 13 16 14 -2 7 -13 -4
-17 -3 -12 5 4 7 14 12 22 12 10 0 14 12 14 40 0 33 3 40 20 40 17 0 20 7 20
45 0 38 3 45 20 45 17 0 20 7 20 50 0 42 2 48 17 43 12 -5 15 -2 10 10 -3 9
-2 17 3 17 6 0 10 18 10 40 0 33 3 40 20 40 17 0 20 7 20 40 0 30 5 42 18 47
25 10 32 23 32 71 0 36 3 42 21 42 13 0 20 6 18 18 -1 9 -1 36 0 60 1 35 4 42
21 42 18 0 20 7 20 60 0 54 2 60 21 60 13 0 20 6 18 18 -1 9 -1 45 0 80 1 55
3 62 21 62 18 0 20 7 20 85 0 78 2 85 20 85 18 0 20 7 22 68 0 37 1 73 1 80
-1 6 8 12 18 12 18 0 19 9 19 120 0 113 1 120 20 120 19 0 20 7 20 139 0 117
2 140 16 145 8 3 13 10 9 15 -3 5 -1 12 5 16 11 7 15 1152 4 1193 -4 12 -13
22 -20 22 -11 0 -14 28 -14 141 0 132 -1 141 -20 146 -19 5 -20 14 -20 124 0
112 -1 119 -20 119 -18 0 -20 7 -20 80 0 73 -2 80 -20 80 -18 0 -20 7 -20 80
0 73 -2 80 -20 80 -18 0 -20 7 -20 64 0 73 -6 96 -26 96 -11 0 -14 16 -14 65
0 58 -2 65 -20 65 -18 0 -20 7 -20 60 0 53 -2 60 -20 60 -17 0 -20 7 -21 48
-1 26 -1 50 0 55 1 6 -22 11 -41 8 -5 0 -8 19 -8 44 0 38 -3 45 -20 45 -16 0
-20 7 -21 40 -1 22 -2 46 -3 53 -1 6 -9 15 -18 19 -13 5 -18 19 -18 48 0 33
-3 40 -20 40 -16 0 -20 7 -20 33 0 47 -10 77 -26 77 -10 0 -14 13 -14 46 0 37
-4 47 -20 51 -11 3 -20 14 -20 24 0 10 -5 21 -10 24 -6 4 -8 11 -4 16 3 5 0 8
-7 7 -7 -2 -16 14 -21 40 -6 26 -15 42 -24 42 -8 0 -14 10 -14 25 0 18 -5 25
-20 25 -17 0 -20 7 -20 40 0 33 -3 40 -20 40 -17 0 -20 7 -20 40 0 33 -4 40
-19 40 -13 0 -21 10 -25 34 -4 19 -13 37 -21 40 -10 3 -15 19 -15 46 0 33 -3
40 -20 40 -13 0 -20 7 -20 20 0 13 -7 20 -20 20 -13 0 -20 7 -20 20 0 13 -7
20 -20 20 -17 0 -20 7 -20 40 0 33 -3 40 -20 40 -17 0 -20 7 -20 40 0 33 -3
40 -20 40 -13 0 -20 7 -20 20 0 13 -7 20 -20 20 -19 0 -26 24 -21 68 1 6 -7
12 -19 12 -15 0 -20 6 -20 25 0 18 -5 25 -20 25 -13 0 -20 7 -20 20 0 13 -7
20 -20 20 -13 0 -20 7 -20 20 0 13 -7 20 -20 20 -17 0 -20 7 -20 40 0 33 -3
40 -20 40 -13 0 -20 7 -20 20 0 13 -7 20 -20 20 -13 0 -20 7 -20 20 0 15 -7
20 -25 20 -18 0 -25 5 -25 20 0 13 -7 20 -20 20 -11 0 -19 3 -19 8 4 22 -3 32
-21 32 -11 0 -20 7 -20 15 0 9 -9 25 -20 37 -11 12 -20 32 -20 45 0 16 -6 23
-20 23 -13 0 -20 7 -20 20 0 13 -7 20 -20 20 -13 0 -20 7 -20 20 0 13 -7 20
-20 20 -13 0 -20 7 -20 20 0 13 -7 20 -20 20 -13 0 -20 7 -20 20 0 13 -7 20
-20 20 -13 0 -20 7 -20 20 0 13 -7 20 -20 20 -13 0 -20 7 -20 20 0 13 -7 20
-20 20 -18 0 -25 10 -21 32 0 5 -2 7 -7 7 -22 -4 -32 3 -32 21 0 13 -7 20 -20
20 -13 0 -20 7 -20 20 0 16 -7 20 -31 20 -21 0 -28 4 -23 13 5 8 2 8 -9 -2
-15 -12 -17 -11 -17 8 0 14 -6 21 -20 21 -13 0 -20 7 -20 20 0 13 -7 20 -20
20 -13 0 -20 7 -20 20 0 13 -7 20 -20 20 -15 0 -20 7 -20 25 0 18 -5 25 -20
25 -13 0 -20 7 -20 20 0 13 -7 20 -20 20 -13 0 -20 7 -20 20 0 15 -7 20 -25
20 -20 0 -25 5 -26 28 -1 15 -1 30 0 35 0 4 -4 7 -10 7 -6 0 -9 -7 -5 -15 4
-11 -2 -15 -24 -15 -23 0 -30 4 -30 20 0 13 -7 20 -20 20 -13 0 -20 7 -20 20
0 16 -7 20 -34 20 -19 0 -38 5 -42 12 -4 7 -3 8 4 4 7 -4 12 -3 12 3 0 6 -16
13 -35 17 -25 4 -35 11 -35 25 0 12 -7 19 -20 19 -13 0 -20 7 -20 20 0 16 -7
20 -31 20 -25 0 -30 3 -25 18 5 14 3 13 -10 -3 -16 -20 -16 -20 -11 3 4 18 1
22 -19 22 -17 0 -24 6 -24 20 0 16 -7 20 -32 21 -18 1 -36 1 -40 0 -5 0 -7 2
-7 7 4 22 -3 32 -21 32 -13 0 -20 7 -20 20 0 17 -7 20 -40 20 -33 0 -40 3 -40
20 0 13 -7 20 -20 20 -11 0 -20 6 -20 14 0 17 -20 25 -77 28 -23 1 -41 4 -41
7 2 22 -5 31 -22 31 -13 0 -20 7 -20 20 0 17 -7 20 -40 20 -33 0 -40 3 -40 20
0 17 -7 20 -40 20 -33 0 -40 3 -40 20 0 17 -7 20 -40 20 -33 0 -40 3 -40 20 0
17 -7 20 -45 20 -38 0 -45 3 -45 20 0 17 -7 20 -40 20 -33 0 -40 3 -40 20 0
17 -7 20 -45 20 -32 0 -45 4 -45 14 0 18 -22 26 -71 26 -32 0 -39 3 -39 20 0
17 -7 20 -40 20 -36 0 -40 3 -40 25 0 24 -3 25 -60 25 -52 0 -60 2 -58 18 3
14 -6 17 -59 20 -54 3 -63 6 -63 22 0 16 -9 19 -62 22 -35 2 -62 7 -60 13 5
15 -28 24 -95 24 -56 1 -63 3 -63 21 0 18 -7 20 -70 20 -53 0 -70 3 -70 14 0
19 -32 26 -117 26 -66 0 -73 2 -73 20 0 18 -7 20 -85 20 -76 0 -85 2 -85 19 0
15 -7 18 -46 16 -27 -1 -49 -8 -55 -16 -5 -8 -9 -191 -9 -406 0 -343 -2 -393
-15 -393 -8 0 -15 -4 -15 -9 0 -5 7 -11 15 -15 8 -3 15 -15 15 -26 0 -18 6
-20 80 -20 73 0 80 -2 80 -20 0 -18 7 -20 68 -20 37 0 74 -5 82 -10 12 -8 12
-10 -5 -11 l-20 0 20 -9 c11 -5 46 -9 78 -9 50 -1 57 -3 57 -21 0 -18 7 -20
81 -20 72 0 81 -2 86 -20 4 -16 14 -20 52 -21 25 -1 53 0 61 1 10 1 9 -3 -5
-14 -16 -13 -17 -15 -2 -10 9 3 17 1 17 -5 0 -6 17 -11 40 -11 33 0 40 -3 40
-20 0 -16 7 -20 38 -21 45 -1 99 -16 67 -19 l-20 -1 20 -9 c11 -5 37 -9 58 -9
30 -1 37 -5 37 -21 0 -17 7 -20 40 -20 33 0 40 -3 40 -20 0 -17 7 -20 40 -20
36 0 40 -2 40 -25 0 -22 4 -25 40 -25 33 0 40 -3 40 -20 0 -17 7 -20 40 -20
33 0 40 -3 40 -20 0 -17 7 -20 40 -20 33 0 40 -3 40 -20 0 -17 7 -20 40 -20
33 0 40 -3 40 -20 0 -13 7 -20 20 -20 13 0 20 -7 20 -20 0 -17 7 -20 45 -20
38 0 45 -3 45 -20 0 -17 7 -20 40 -20 33 0 40 -3 40 -20 0 -13 7 -20 19 -20
10 0 21 -9 24 -20 4 -15 14 -20 41 -20 29 0 36 -4 36 -20 0 -13 7 -20 20 -20
13 0 20 -7 20 -20 0 -12 6 -20 13 -19 43 5 67 -2 67 -21 0 -13 7 -20 20 -20
13 0 20 -7 20 -20 0 -13 7 -20 20 -20 13 0 20 -7 20 -20 0 -13 7 -20 19 -20
10 0 21 -9 24 -20 4 -15 14 -20 39 -20 30 0 35 -4 43 -32 8 -25 18 -35 43 -43
21 -6 32 -15 32 -27 0 -11 7 -18 20 -18 13 0 20 -7 20 -20 0 -13 7 -20 20 -20
13 0 20 -7 20 -20 0 -13 7 -20 20 -20 11 0 23 -7 26 -15 4 -8 12 -15 20 -15 8
0 14 -10 14 -25 0 -20 5 -25 25 -25 15 0 25 -6 25 -14 0 -7 9 -16 20 -19 11
-3 20 -9 19 -14 -3 -19 2 -31 14 -30 63 2 67 -1 67 -48 0 -38 3 -45 20 -45 13
0 20 -7 20 -20 0 -15 7 -20 26 -20 14 0 23 -4 19 -9 -3 -6 4 -15 15 -21 11 -6
20 -20 20 -30 0 -13 7 -20 20 -20 13 0 20 -7 20 -20 0 -13 7 -20 20 -20 13 0
20 -7 20 -20 0 -13 7 -20 20 -20 19 0 24 -16 23 -67 0 -7 2 -12 6 -11 3 0 21
0 39 -1 31 -1 32 -3 32 -41 0 -33 4 -40 19 -40 14 0 21 -10 25 -35 6 -29 12
-35 41 -41 25 -4 35 -11 35 -25 0 -12 7 -19 20 -19 17 0 20 -7 20 -40 0 -33 3
-40 20 -40 13 0 20 -7 20 -19 0 -11 9 -21 21 -24 12 -3 18 -10 15 -16 -4 -5
-3 -12 1 -14 5 -3 8 -23 7 -45 0 -33 2 -38 18 -34 14 3 18 -1 18 -22 0 -19 5
-26 20 -26 13 0 20 -7 20 -20 0 -13 7 -20 20 -20 17 0 20 -7 20 -40 0 -33 3
-40 20 -40 17 0 20 -7 20 -45 0 -38 3 -45 20 -45 13 0 20 -7 20 -20 0 -13 7
-20 20 -20 17 0 20 -7 20 -40 0 -33 3 -40 20 -40 17 0 20 -7 20 -40 0 -33 3
-40 20 -40 17 0 20 -7 20 -40 0 -36 3 -40 25 -40 23 0 25 -4 25 -40 0 -33 3
-40 20 -40 17 0 20 -7 21 -47 1 -27 1 -53 0 -60 -1 -7 7 -10 19 -8 18 3 20 -1
20 -41 0 -37 3 -44 20 -44 18 0 20 -7 20 -60 0 -53 2 -60 20 -60 16 0 20 -7
20 -32 0 -48 10 -78 26 -78 11 0 14 -17 14 -70 0 -63 2 -70 20 -70 17 0 20 -7
20 -40 0 -33 3 -40 20 -40 18 0 20 -7 20 -85 0 -72 3 -88 20 -105 16 -16 20
-33 20 -80 0 -47 4 -64 20 -80 17 -17 20 -33 20 -115 0 -55 4 -95 10 -95 5 0
7 -6 4 -14 -3 -7 2 -16 10 -19 13 -5 16 -28 16 -140 0 -155 6 -198 26 -190 12
4 14 -61 14 -422 0 -376 -2 -426 -15 -421 -9 3 -16 -1 -16 -9 -1 -8 -3 -19 -4
-25 -1 -5 -3 -77 -4 -160 -1 -120 -4 -150 -15 -150 -20 0 -26 -32 -26 -137 0
-86 -1 -93 -20 -93 -18 0 -20 -7 -20 -80 0 -44 -3 -79 -7 -79 -30 5 -33 -4
-33 -81 0 -73 -2 -80 -20 -80 -18 0 -20 -7 -20 -70 0 -53 -3 -70 -14 -70 -17
0 -26 -31 -26 -97 0 -46 -3 -53 -20 -53 -17 0 -20 -7 -20 -39 0 -30 -4 -40
-20 -44 -17 -4 -20 -14 -20 -61 0 -49 -2 -56 -20 -56 -17 0 -20 -7 -20 -40 0
-33 -3 -40 -20 -40 -17 0 -20 -7 -20 -45 0 -33 -4 -45 -15 -45 -8 0 -17 -14
-21 -35 -5 -28 -11 -35 -30 -35 -22 0 -24 -4 -24 -45 0 -32 -4 -45 -14 -45
-16 0 -26 -30 -26 -77 0 -26 -4 -33 -20 -33 -17 0 -20 -7 -20 -40 0 -33 -3
-40 -20 -40 -15 0 -20 -7 -20 -25 0 -14 -7 -28 -15 -31 -8 -3 -17 -21 -21 -40
-4 -24 -12 -34 -25 -34 -15 0 -19 -7 -19 -40 0 -33 -3 -40 -20 -40 -13 0 -20
-7 -20 -20 0 -13 -7 -20 -20 -20 -17 0 -20 -7 -20 -40 0 -33 -3 -40 -20 -40
-13 0 -20 -7 -20 -20 0 -13 -7 -20 -20 -20 -17 0 -20 -7 -20 -40 0 -33 -3 -40
-20 -40 -15 0 -20 -7 -20 -25 0 -16 -6 -25 -15 -25 -8 0 -15 -7 -15 -15 0 -9
-9 -15 -25 -15 -22 0 -25 -4 -25 -36 0 -27 -5 -37 -20 -41 -11 -3 -20 -14 -20
-24 0 -12 -7 -19 -20 -19 -15 0 -20 -7 -20 -24 0 -19 -5 -24 -19 -21 -10 2
-18 -2 -18 -8 1 -51 -4 -67 -23 -67 -13 0 -20 -7 -20 -20 0 -13 -7 -20 -20
-20 -13 0 -20 -7 -20 -20 0 -13 -7 -20 -20 -20 -13 0 -20 -7 -20 -20 0 -13 -7
-20 -20 -20 -13 0 -20 -7 -20 -20 0 -13 -7 -20 -20 -20 -13 0 -20 -7 -20 -20
0 -13 -7 -20 -19 -20 -14 0 -21 -8 -23 -27 -2 -16 -8 -27 -15 -26 -8 2 -15
-13 -19 -37 -6 -40 -7 -40 -50 -40 -38 0 -44 -3 -44 -20 0 -11 -6 -23 -14 -26
-8 -3 -16 -14 -19 -25 -3 -11 -14 -19 -26 -19 -12 0 -20 -6 -19 -12 2 -7 -7
-14 -19 -16 -15 -2 -23 -10 -23 -23 0 -12 -7 -19 -20 -19 -13 0 -20 -7 -20
-20 0 -13 -7 -20 -20 -20 -13 0 -20 -7 -20 -20 0 -13 -7 -20 -20 -20 -13 0
-20 -7 -20 -19 0 -14 -10 -21 -36 -26 -34 -6 -35 -7 -18 -21 18 -14 18 -15 1
-10 -12 4 -20 -2 -27 -19 -7 -19 -17 -25 -41 -25 -22 0 -32 -5 -36 -20 -3 -11
-14 -20 -24 -20 -12 0 -19 -7 -19 -20 0 -19 -14 -24 -57 -23 -7 1 -13 -8 -13
-18 0 -14 -7 -19 -25 -19 -18 0 -25 -5 -25 -20 0 -13 -7 -20 -20 -20 -13 0
-20 -7 -20 -20 0 -14 -7 -20 -22 -20 -30 0 -52 -15 -44 -29 4 -6 4 -11 -1 -10
-32 6 -53 -3 -53 -21 0 -15 -7 -20 -25 -20 -14 0 -25 -5 -25 -11 0 -5 -5 -7
-12 -3 -7 4 -8 3 -4 -5 5 -7 -3 -13 -23 -17 -21 -4 -31 -12 -31 -24 0 -13 -11
-19 -40 -24 -23 -3 -43 -13 -46 -21 -4 -8 -15 -15 -25 -15 -12 0 -19 -7 -19
-20 0 -17 -7 -20 -40 -20 -36 0 -40 -2 -40 -25 0 -22 -4 -25 -40 -25 -33 0
-40 -3 -40 -20 0 -17 -7 -20 -40 -20 -33 0 -40 -3 -40 -20 0 -17 -7 -20 -40
-20 -33 0 -40 -3 -40 -20 0 -17 -7 -20 -40 -20 -35 0 -40 -3 -40 -22 0 -19 -2
-20 -10 -8 -6 10 -10 11 -10 3 0 -8 -13 -13 -30 -13 -23 0 -33 -6 -39 -22 -5
-13 -11 -22 -15 -20 -3 1 -17 2 -31 2 -18 0 -25 -5 -25 -20 0 -18 -7 -20 -60
-20 -53 0 -60 -2 -60 -20 0 -18 -7 -20 -60 -20 -53 0 -60 -2 -60 -20 0 -18 -7
-20 -57 -20 -75 0 -103 -8 -96 -26 4 -11 -6 -14 -46 -14 -44 0 -51 -3 -51 -20
0 -17 -7 -20 -52 -20 -70 0 -98 -8 -91 -26 4 -11 -8 -14 -58 -14 -78 0 -109
-8 -109 -26 0 -11 -19 -14 -84 -14 -75 0 -84 -2 -89 -20 -5 -19 -14 -20 -130
-20 -141 0 -187 -6 -187 -26 0 -12 -96 -14 -590 -14 -583 0 -590 0 -590 20 0
19 -7 20 -125 20 -101 0 -123 3 -119 14 7 17 -36 26 -126 26 -59 0 -68 2 -73
20 -5 18 -14 20 -81 20 -69 0 -76 2 -76 20 0 18 -7 20 -85 20 -78 0 -85 2 -85
20 0 18 -7 20 -60 20 -53 0 -60 2 -60 20 0 18 -7 20 -60 20 -53 0 -60 2 -60
20 0 18 -7 20 -60 20 -53 0 -60 2 -60 20 0 17 -7 20 -40 20 -33 0 -40 3 -40
20 0 16 -7 20 -38 20 -25 0 -43 7 -55 20 -11 13 -29 20 -52 20 -25 0 -33 4
-29 14 6 15 -23 26 -73 26 -26 0 -33 4 -33 20 0 17 -7 20 -40 20 -33 0 -40 3
-40 20 0 17 -7 20 -40 20 -33 0 -40 3 -40 20 0 17 -7 20 -45 20 -41 0 -45 2
-45 25 0 18 -5 25 -20 25 -13 0 -20 7 -20 20 0 17 -7 20 -40 20 -33 0 -40 3
-40 20 0 17 -7 20 -40 20 -33 0 -40 3 -40 20 0 13 -7 20 -20 20 -13 0 -20 7
-20 20 0 17 -7 20 -40 20 -33 0 -40 3 -40 20 0 13 -7 20 -20 20 -13 0 -20 7
-20 20 0 17 -7 20 -40 20 -33 0 -40 3 -40 20 0 13 -7 20 -20 20 -13 0 -20 7
-20 20 0 17 -7 20 -40 20 -33 0 -40 4 -40 19 0 10 -9 21 -20 24 -11 3 -20 12
-20 21 0 9 -8 16 -20 16 -13 0 -20 7 -20 20 0 16 -7 20 -36 20 -27 0 -37 5
-41 20 -3 11 -14 20 -24 20 -12 0 -19 7 -19 20 0 13 -7 20 -20 20 -13 0 -20 7
-20 20 0 13 -7 20 -20 20 -13 0 -20 7 -20 20 0 13 -7 20 -20 20 -13 0 -20 7
-20 20 0 15 -7 20 -25 20 -18 0 -25 5 -25 20 0 13 -7 20 -20 20 -13 0 -20 7
-20 20 0 13 -7 20 -20 20 -12 0 -20 7 -20 16 0 9 -9 18 -20 21 -11 3 -20 14
-20 24 0 12 -7 19 -20 19 -13 0 -20 7 -20 20 0 15 -7 20 -25 20 -16 0 -25 6
-25 15 0 8 -5 15 -11 15 -6 0 -8 -7 -5 -16 3 -9 2 -12 -4 -9 -6 4 -10 12 -9
18 5 44 -2 67 -21 67 -13 0 -20 7 -20 20 0 13 -7 20 -20 20 -13 0 -20 7 -20
20 0 13 -7 20 -20 20 -13 0 -20 7 -20 20 0 13 -7 20 -20 20 -13 0 -20 7 -20
20 0 13 -7 20 -20 20 -13 0 -20 7 -20 19 0 10 -9 21 -20 24 -15 4 -20 14 -20
41 0 29 -4 36 -20 36 -13 0 -20 7 -20 20 0 13 -7 20 -20 20 -13 0 -20 7 -20
19 0 10 -9 21 -19 24 -11 3 -22 17 -26 36 -4 17 -13 31 -21 31 -8 0 -14 10
-14 25 0 18 -5 25 -20 25 -13 0 -20 7 -20 20 0 13 -7 20 -20 20 -17 0 -20 7
-20 40 0 33 -3 40 -20 40 -13 0 -20 7 -20 20 0 13 -7 20 -20 20 -17 0 -20 7
-20 40 0 33 -3 40 -20 40 -13 0 -20 7 -20 20 0 13 -7 20 -20 20 -17 0 -20 7
-20 40 0 33 -3 40 -20 40 -17 0 -20 7 -20 40 0 36 -2 40 -25 40 -23 0 -25 4
-25 45 0 38 -3 45 -20 45 -19 0 -26 24 -21 68 1 6 -7 12 -19 12 -17 0 -20 6
-20 40 0 33 -3 40 -20 40 -13 0 -20 7 -20 20 0 11 -4 20 -9 20 -5 0 -7 10 -4
23 3 16 2 18 -5 9 -12 -18 -22 6 -22 54 0 27 -4 34 -20 34 -17 0 -20 7 -20 40
0 33 -3 40 -20 40 -17 0 -20 7 -20 40 0 33 -3 40 -20 40 -18 0 -20 7 -20 60 0
53 -2 60 -20 60 -18 0 -20 7 -20 60 0 53 -2 60 -20 60 -18 0 -20 7 -20 60 0
53 -2 60 -20 60 -18 0 -20 7 -20 58 0 71 -8 102 -26 102 -11 0 -14 16 -14 65
0 51 -3 65 -15 65 -8 0 -15 5 -15 11 0 5 5 7 10 4 6 -3 10 -1 10 4 0 6 -7 11
-15 11 -12 0 -15 13 -15 58 0 71 -8 102 -26 102 -11 0 -14 22 -14 103 0 56 -5
109 -10 117 -6 10 -10 11 -10 3 0 -7 -4 -13 -9 -13 -5 0 -9 78 -10 174 -1 95
-6 186 -11 202 -4 16 -9 23 -9 17 -1 -7 -5 -13 -11 -13 -6 0 -10 132 -10 375
0 368 0 375 20 375 19 0 20 7 20 185 0 178 1 185 20 185 19 0 20 7 20 100 0
93 1 100 20 100 19 0 20 7 20 100 0 93 1 100 20 100 18 0 20 7 20 71 0 61 2
70 16 65 12 -4 15 -2 10 9 -3 8 -1 15 4 15 6 0 10 27 10 60 0 53 2 60 20 60
18 0 20 7 20 65 0 58 2 65 20 65 18 0 20 7 20 60 0 53 2 60 20 60 18 0 20 7
20 60 0 53 2 60 20 60 17 0 20 7 20 40 0 33 3 40 20 40 17 0 20 7 20 40 0 31
5 42 19 48 11 4 20 10 20 15 1 4 1 18 1 32 0 18 5 25 19 25 10 0 19 6 18 13 0
6 1 33 1 60 2 40 5 47 22 47 15 0 20 7 20 25 0 15 6 25 14 25 16 0 26 30 26
78 0 25 4 32 20 32 13 0 20 7 20 20 0 15 7 20 25 20 23 0 25 4 25 45 0 38 3
45 20 45 17 0 20 7 20 40 0 33 3 40 20 40 17 0 20 7 20 40 0 33 3 40 20 40 13
0 20 7 20 20 0 13 7 20 20 20 13 0 20 7 20 20 0 13 7 20 20 20 17 0 20 7 20
40 0 33 3 40 20 40 13 0 20 7 20 20 0 13 7 20 19 20 14 0 21 8 23 28 2 17 8
26 17 24 12 -3 12 0 1 12 -10 13 -10 16 4 16 9 0 16 8 16 20 0 13 7 20 20 20
13 0 20 7 20 20 0 13 7 20 19 20 13 0 21 8 23 23 2 12 9 22 17 22 13 0 20 17
23 52 1 9 5 10 14 2 10 -8 14 -2 20 25 4 26 11 36 25 36 12 0 19 7 19 20 0 13
7 20 20 20 13 0 20 7 20 20 0 13 7 20 20 20 13 0 20 7 20 20 0 13 7 20 20 20
13 0 20 7 20 20 0 13 7 20 20 20 13 0 20 7 20 20 0 13 7 20 20 20 13 0 20 7
20 20 0 13 7 20 20 20 15 0 20 7 20 25 0 18 5 25 20 25 13 0 20 7 20 20 0 13
7 20 20 20 13 0 20 7 20 20 0 13 7 20 20 20 13 0 20 7 20 20 0 13 7 20 20 20
13 0 20 7 20 20 0 15 7 20 25 20 18 0 25 5 25 20 0 13 7 20 20 20 13 0 20 7
20 20 0 13 7 20 20 20 13 0 20 7 20 20 0 13 7 20 20 20 13 0 20 7 20 20 0 13
7 20 19 20 30 0 51 11 51 26 0 8 10 14 25 14 18 0 25 5 25 20 0 13 7 20 20 20
13 0 20 7 20 20 0 13 7 20 20 20 13 0 20 7 20 20 0 19 24 26 68 21 6 -1 12 7
12 19 0 13 7 20 20 20 13 0 20 7 20 19 0 14 10 20 40 25 23 4 39 11 37 18 -1
7 8 14 21 16 14 2 22 10 22 23 0 12 7 19 19 19 30 0 51 11 51 26 0 8 10 14 25
14 18 0 25 5 25 20 0 17 7 20 40 20 22 0 39 3 39 8 -4 25 4 32 41 32 33 0 40
3 40 20 0 13 7 20 20 20 13 0 20 7 20 20 0 17 7 20 45 20 38 0 45 3 45 20 0
17 7 20 40 20 33 0 40 3 40 20 0 17 7 20 40 20 36 0 40 3 40 25 0 23 4 25 40
25 33 0 40 3 40 20 0 17 7 20 40 20 33 0 40 3 40 20 0 17 7 20 40 20 22 0 40
5 40 11 0 5 6 7 13 3 9 -6 9 -4 -1 8 -10 13 -10 16 0 15 7 0 34 1 61 1 40 2
47 5 47 22 0 13 7 20 20 20 13 0 20 -7 20 -20 0 -13 7 -20 20 -20 20 0 25 -15
14 -44 -3 -9 -10 -13 -15 -10 -5 3 -9 0 -9 -5 0 -6 7 -11 15 -11 11 0 15 -12
15 -50 0 -38 -4 -50 -15 -50 -13 0 -15 -406 -15 -3595 0 -3189 2 -3595 15
-3595 8 0 15 -9 15 -20 0 -22 -16 -27 -23 -7 -2 6 -6 -1 -9 -17 -5 -22 -2 -30
13 -33 26 -7 25 -43 -1 -43 -13 0 -20 -7 -20 -20 0 -20 7 -20 1740 -20 1733 0
1740 0 1740 20 0 13 7 20 20 20 13 0 20 7 20 19 0 11 9 23 20 26 15 5 20 15
20 41 0 33 1 34 40 34 38 0 40 2 40 30 0 19 5 29 13 28 6 -2 11 3 9 10 -2 11
15 16 43 13 6 0 12 7 13 17 6 59 10 63 51 64 25 1 31 5 32 25 3 43 4 46 19 50
13 4 13 3 0 -6 -8 -6 -10 -11 -4 -11 6 0 17 6 24 14 6 8 18 12 27 9 10 -4 14
0 13 13 -6 57 -2 64 40 64 39 0 40 1 40 35 0 35 6 41 45 47 26 4 35 17 35 51
0 23 4 27 28 28 15 1 33 1 41 -1 10 -1 12 6 9 25 -3 14 -1 28 4 31 4 3 6 9 3
14 -7 11 4 18 39 24 39 7 42 10 45 56 1 16 8 20 41 20 34 0 40 3 40 21 0 23
47 66 67 61 8 -2 13 1 12 5 -1 4 -1 23 0 41 1 28 4 32 30 32 16 0 34 7 41 15
7 8 9 15 5 15 -4 0 -2 6 4 13 6 8 7 18 3 23 -4 4 1 2 11 -5 15 -12 17 -12 12
1 -4 11 2 18 18 22 23 5 41 36 38 64 -1 8 12 12 39 12 35 0 40 3 40 23 1 20
15 36 64 70 10 8 19 26 19 40 0 23 4 27 27 27 31 0 50 18 53 49 1 19 41 46 63
43 7 -2 12 3 11 10 -2 53 2 58 43 58 33 0 40 3 40 20 0 13 7 20 20 20 17 0 20
7 20 40 l0 40 -1675 0 -1675 0 0 3560 c0 3553 0 3560 -20 3560 -13 0 -20 7
-20 20 0 19 -7 20 -120 20 -113 0 -120 -1 -120 -20z m3290 -7510 c0 -5 -4 -10
-10 -10 -5 0 -10 5 -10 10 0 6 5 10 10 10 6 0 10 -4 10 -10z m-320 -320 c0 -5
-4 -10 -10 -10 -5 0 -10 5 -10 10 0 6 5 10 10 10 6 0 10 -4 10 -10z"/>
<path d="M9725 11000 c3 -5 8 -10 11 -10 2 0 4 5 4 10 0 6 -5 10 -11 10 -5 0
-7 -4 -4 -10z"/>
<path d="M3250 2960 c0 -5 5 -10 10 -10 6 0 10 5 10 10 0 6 -4 10 -10 10 -5 0
-10 -4 -10 -10z"/>
<path d="M3580 2430 c0 -5 5 -10 11 -10 5 0 7 5 4 10 -3 6 -8 10 -11 10 -2 0
-4 -4 -4 -10z"/>
<path d="M9680 2430 c0 -5 5 -10 11 -10 5 0 7 5 4 10 -3 6 -8 10 -11 10 -2 0
-4 -4 -4 -10z"/>
<path d="M521 98 l-1 -98 98 1 c66 1 86 4 62 8 -72 15 -126 66 -146 138 l-13
48 0 -97z"/>
<path d="M12750 165 c0 -61 -64 -131 -137 -151 l-48 -13 98 0 97 -1 0 95 c0
52 -2 95 -5 95 -3 0 -5 -11 -5 -25z"/>
</g>
</svg>
